<svg width="600" height="494" viewBox="0 0 600 494" fill="none" xmlns="http://www.w3.org/2000/svg">
<g clip-path="url(#clip0_98_2)">
<path d="M462.72 265.492C448.053 307.088 486.7 333.851 486.7 333.851L459.233 400.537C425.158 408.654 417.473 383.977 390.848 366.43C364.224 348.883 330.463 393.61 303.397 360.903C276.993 329.002 319.589 313.841 271.592 299.407C242.303 290.583 142.731 224.754 135.843 203.043L198.342 3.22651L440.135 -14.0963C480.729 25.7619 476.803 225.583 462.72 265.492" fill="#FFE98F"/>
<path d="M463.78 173.228C463.315 172.427 462.782 171.667 462.186 170.958C460.95 169.475 459.468 168.217 457.804 167.238C457.023 166.782 456.205 166.391 455.358 166.07C453.599 165.405 451.732 165.066 449.851 165.07C448.966 165.07 448.083 165.154 447.214 165.32C445.383 165.643 443.631 166.315 442.054 167.301C441.301 167.758 440.592 168.286 439.938 168.875C437.861 170.749 436.322 173.142 435.478 175.808C434.888 177.649 434.624 179.578 434.699 181.509C434.781 183.411 435.167 185.288 435.841 187.069C436.529 188.845 437.499 190.498 438.713 191.965C439.95 193.452 441.441 194.709 443.116 195.676C443.885 196.144 444.7 196.533 445.547 196.836C447.306 197.518 449.177 197.865 451.064 197.859C451.945 197.859 452.824 197.777 453.69 197.614C455.521 197.291 457.273 196.618 458.85 195.633C459.607 195.174 460.319 194.646 460.977 194.054C463.048 192.179 464.583 189.788 465.425 187.125C466.014 185.28 466.276 183.347 466.199 181.413C466.119 179.51 465.734 177.633 465.057 175.853C464.711 174.941 464.284 174.063 463.78 173.228V173.228ZM458.915 178.21C459.418 179.337 459.687 180.554 459.704 181.787C459.721 183.02 459.487 184.244 459.016 185.384C458.544 186.524 457.846 187.556 456.962 188.417C456.079 189.277 455.03 189.949 453.878 190.391C452.727 190.833 451.497 191.036 450.265 190.988C449.032 190.939 447.823 190.639 446.71 190.108C445.597 189.576 444.604 188.823 443.791 187.895C442.979 186.967 442.364 185.883 441.984 184.71C441.481 183.584 441.213 182.367 441.196 181.133C441.178 179.9 441.413 178.676 441.884 177.536C442.355 176.397 443.054 175.365 443.937 174.504C444.82 173.643 445.87 172.971 447.021 172.529C448.173 172.087 449.402 171.884 450.635 171.933C451.867 171.982 453.077 172.281 454.19 172.813C455.303 173.344 456.296 174.097 457.108 175.025C457.921 175.953 458.536 177.037 458.915 178.21" fill="white"/>
<path d="M445.376 162.413C445.309 162.302 445.205 162.218 445.083 162.174C444.961 162.131 444.827 162.131 444.705 162.175L441.817 163.283C441.697 163.333 441.598 163.422 441.536 163.536C441.474 163.65 441.454 163.782 441.478 163.91L442.352 169.05L445.187 167.747L448.165 166.818L445.376 162.413Z" fill="white"/>
<path d="M432.198 175.93C432.07 175.935 431.948 175.987 431.854 176.074C431.76 176.162 431.7 176.28 431.686 176.408L431.47 178.002L431.254 179.598C431.236 179.729 431.262 179.862 431.327 179.977C431.393 180.093 431.494 180.183 431.616 180.235L436.309 182.175L436.562 178.928L437.182 175.75L432.198 175.93Z" fill="white"/>
<path d="M437.276 194.98C437.22 195.1 437.206 195.236 437.234 195.365C437.263 195.494 437.333 195.611 437.434 195.696L438.661 196.738L439.888 197.779C439.985 197.864 440.109 197.912 440.237 197.914C440.366 197.916 440.491 197.872 440.59 197.79L444.408 194.59L441.821 192.642L439.46 190.398L437.276 194.98Z" fill="white"/>
<path d="M455.526 200.514C455.594 200.626 455.697 200.71 455.819 200.753C455.942 200.797 456.075 200.797 456.197 200.753L459.085 199.644C459.205 199.595 459.304 199.506 459.366 199.392C459.428 199.278 459.448 199.146 459.424 199.018L458.549 193.878L455.714 195.181L452.737 196.11L455.526 200.514Z" fill="white"/>
<path d="M468.704 186.999C468.833 186.993 468.955 186.942 469.049 186.854C469.143 186.767 469.203 186.648 469.218 186.521L469.433 184.927L469.649 183.331C469.666 183.2 469.641 183.067 469.575 182.951C469.51 182.836 469.409 182.746 469.287 182.694L464.594 180.754L464.346 183.999L463.725 187.177L468.704 186.999Z" fill="white"/>
<path d="M463.629 167.952C463.685 167.832 463.7 167.697 463.671 167.567C463.642 167.438 463.572 167.322 463.471 167.236L462.244 166.195L461.017 165.153C460.92 165.068 460.797 165.021 460.668 165.019C460.539 165.016 460.414 165.06 460.315 165.142L456.498 168.343L459.084 170.29L461.445 172.534L463.629 167.952Z" fill="white"/>
<path d="M443.725 272.26C443.59 271.69 443.418 271.128 443.211 270.58C440.61 263.803 433.292 260.31 426.866 262.777C423.995 263.956 421.655 266.145 420.287 268.931C418.919 271.717 418.619 274.907 419.442 277.9C418.801 277.951 418.17 278.093 417.569 278.321C415.8 279.11 414.4 280.547 413.659 282.336C412.919 284.126 412.892 286.131 413.587 287.94C414.281 289.748 415.642 291.221 417.39 292.055C419.138 292.889 421.14 293.021 422.982 292.423L447.591 282.976C448.909 282.39 449.955 281.326 450.521 279.999C451.087 278.672 451.13 277.181 450.641 275.824C450.152 274.467 449.168 273.345 447.886 272.684C446.604 272.023 445.119 271.871 443.73 272.259" fill="white"/>
<path d="M441.759 230.857C444.359 237.631 441.259 245.12 434.835 247.586C428.411 250.052 421.096 246.561 418.496 239.787C415.895 233.013 418.996 225.523 425.419 223.057C431.842 220.592 439.158 224.083 441.759 230.857Z" fill="#FFBC2B"/>
<path d="M434.808 251.522L431.876 243.884L432.365 243.696L435.297 251.335L434.808 251.522ZM434.402 245.543C434.251 245.255 434.015 245.076 433.696 245.006C433.378 244.937 433.033 244.973 432.663 245.115C432.393 245.219 432.173 245.354 432.004 245.519C431.836 245.684 431.725 245.865 431.671 246.061C431.618 246.257 431.629 246.453 431.704 246.648C431.767 246.811 431.859 246.936 431.982 247.024C432.106 247.108 432.244 247.166 432.397 247.196C432.55 247.224 432.703 247.238 432.858 247.235C433.011 247.231 433.15 247.222 433.275 247.209L433.96 247.137C434.135 247.118 434.334 247.108 434.557 247.107C434.783 247.105 435.009 247.133 435.237 247.191C435.466 247.247 435.677 247.351 435.87 247.503C436.063 247.655 436.215 247.874 436.325 248.16C436.451 248.491 436.479 248.822 436.409 249.155C436.34 249.487 436.17 249.796 435.901 250.079C435.633 250.363 435.264 250.594 434.795 250.774C434.357 250.942 433.951 251.017 433.576 250.999C433.204 250.98 432.878 250.879 432.598 250.697C432.32 250.514 432.105 250.26 431.953 249.935L432.716 249.641C432.825 249.864 432.976 250.026 433.169 250.125C433.364 250.221 433.579 250.266 433.817 250.26C434.055 250.25 434.295 250.199 434.538 250.106C434.82 249.998 435.057 249.855 435.246 249.677C435.435 249.497 435.563 249.299 435.631 249.084C435.699 248.866 435.689 248.646 435.604 248.423C435.526 248.221 435.406 248.077 435.244 247.993C435.081 247.91 434.892 247.863 434.677 247.855C434.461 247.846 434.235 247.853 433.997 247.876L433.163 247.95C432.633 247.996 432.179 247.945 431.803 247.797C431.427 247.65 431.16 247.37 431.002 246.958C430.87 246.616 430.848 246.282 430.936 245.957C431.024 245.628 431.198 245.333 431.459 245.071C431.72 244.807 432.045 244.6 432.435 244.45C432.829 244.299 433.206 244.235 433.567 244.259C433.927 244.28 434.243 244.378 434.515 244.552C434.789 244.725 434.99 244.964 435.119 245.268L434.402 245.543Z" fill="white"/>
<path d="M440.804 332.587C441.957 335.591 442.194 338.871 441.484 342.01C440.773 345.149 439.148 348.007 436.813 350.222C434.479 352.438 431.54 353.911 428.368 354.456C425.196 355.001 421.933 354.594 418.993 353.285C416.053 351.975 413.567 349.824 411.849 347.102C410.132 344.38 409.26 341.21 409.344 337.992C409.429 334.775 410.465 331.655 412.323 329.027C414.18 326.398 416.775 324.38 419.78 323.226C423.809 321.68 428.288 321.797 432.231 323.552C436.173 325.308 439.257 328.557 440.804 332.587Z" fill="#F6CB52"/>
<path d="M355.118 342.999C356.157 345.706 356.371 348.661 355.731 351.489C355.091 354.317 353.627 356.892 351.523 358.889C349.42 360.885 346.772 362.212 343.914 362.704C341.056 363.195 338.117 362.828 335.468 361.649C332.819 360.47 330.579 358.531 329.031 356.079C327.483 353.627 326.698 350.771 326.773 347.872C326.849 344.973 327.782 342.162 329.455 339.794C331.128 337.425 333.466 335.606 336.173 334.567C337.97 333.877 339.886 333.547 341.811 333.598C343.736 333.648 345.632 334.077 347.391 334.86C349.15 335.644 350.737 336.765 352.063 338.162C353.388 339.559 354.425 341.203 355.115 343" fill="white"/>
<path d="M333.838 357.254L334.509 366.617L340.88 359.831L333.838 357.254Z" fill="white"/>
<path d="M337.915 349.603C338.016 349.865 338.036 350.151 337.974 350.424C337.913 350.698 337.771 350.947 337.567 351.14C337.364 351.333 337.108 351.461 336.832 351.509C336.555 351.556 336.271 351.521 336.015 351.407C335.758 351.293 335.542 351.105 335.392 350.868C335.242 350.631 335.167 350.354 335.174 350.074C335.181 349.794 335.272 349.522 335.433 349.293C335.595 349.064 335.821 348.888 336.083 348.787C336.434 348.653 336.825 348.663 337.168 348.816C337.512 348.969 337.78 349.252 337.915 349.603" fill="#FFBC2B"/>
<path d="M342.754 347.746C342.854 348.007 342.875 348.293 342.813 348.567C342.751 348.84 342.61 349.089 342.406 349.282C342.203 349.475 341.947 349.604 341.67 349.651C341.394 349.699 341.11 349.663 340.853 349.549C340.597 349.435 340.381 349.248 340.231 349.01C340.081 348.773 340.005 348.497 340.013 348.217C340.02 347.936 340.11 347.664 340.272 347.435C340.434 347.206 340.66 347.03 340.922 346.93C341.273 346.795 341.663 346.805 342.007 346.958C342.35 347.111 342.619 347.394 342.754 347.746Z" fill="#FFBC2B"/>
<path d="M347.593 345.888C347.693 346.15 347.714 346.436 347.652 346.709C347.59 346.983 347.448 347.232 347.245 347.425C347.042 347.618 346.785 347.746 346.509 347.794C346.233 347.841 345.948 347.806 345.692 347.692C345.436 347.578 345.219 347.39 345.07 347.153C344.92 346.916 344.844 346.64 344.851 346.359C344.859 346.079 344.949 345.807 345.111 345.578C345.273 345.349 345.499 345.173 345.761 345.073C346.112 344.938 346.502 344.948 346.846 345.101C347.189 345.254 347.458 345.537 347.593 345.888Z" fill="#FFBC2B"/>
<path d="M341.212 291.764C342.074 294.011 342.251 296.464 341.72 298.812C341.189 301.16 339.973 303.297 338.227 304.954C336.481 306.611 334.283 307.713 331.91 308.121C329.538 308.529 327.098 308.224 324.899 307.245C322.7 306.266 320.841 304.657 319.556 302.621C318.271 300.585 317.619 298.214 317.682 295.808C317.745 293.402 318.52 291.068 319.909 289.102C321.298 287.136 323.239 285.626 325.486 284.764C328.5 283.607 331.85 283.694 334.799 285.007C337.748 286.32 340.054 288.751 341.212 291.764" fill="#F6CB52"/>
<path d="M335.059 293.547C334.809 292.769 334.262 292.121 333.536 291.744C332.811 291.367 331.966 291.292 331.185 291.535C330.717 291.727 330.309 292.04 330.003 292.443C329.697 292.846 329.505 293.323 329.446 293.825C329.434 293.917 329.397 294.003 329.34 294.076C329.283 294.148 329.208 294.204 329.122 294.237C329.036 294.27 328.942 294.279 328.851 294.263C328.761 294.248 328.676 294.208 328.606 294.148C328.225 293.814 327.763 293.588 327.266 293.494C326.769 293.399 326.256 293.439 325.78 293.61C325.037 293.951 324.46 294.573 324.173 295.338C323.886 296.104 323.913 296.952 324.248 297.697C324.248 297.697 324.908 301.295 332.145 302.113C336.976 296.662 335.06 293.547 335.06 293.547" fill="white"/>
<path d="M411.679 210.845C412.844 213.88 413.083 217.192 412.365 220.363C411.647 223.534 410.006 226.42 407.647 228.658C405.289 230.896 402.32 232.384 399.117 232.934C395.913 233.485 392.617 233.073 389.648 231.75C386.678 230.428 384.167 228.255 382.432 225.505C380.697 222.756 379.817 219.554 379.902 216.304C379.987 213.054 381.034 209.903 382.91 207.248C384.787 204.593 387.408 202.554 390.443 201.389C392.458 200.616 394.606 200.246 396.764 200.303C398.922 200.359 401.048 200.84 403.02 201.718C404.992 202.596 406.772 203.854 408.258 205.42C409.744 206.986 410.907 208.829 411.68 210.845" fill="#ACA1F0"/>
<path d="M401.021 204.194L397.1 205.699L401.826 218.012L391.909 221.819L386.218 215.127L398.857 210.275" stroke="white" stroke-miterlimit="10" stroke-linecap="round"/>
<path d="M392.903 224.627L402.897 220.791L401.83 218.011" stroke="white" stroke-miterlimit="10" stroke-linecap="round"/>
<path d="M397.029 226.021C396.922 225.232 396.196 224.68 395.407 224.787C394.619 224.893 394.066 225.619 394.173 226.408C394.28 227.197 395.006 227.749 395.794 227.642C396.583 227.536 397.135 226.81 397.029 226.021Z" stroke="white" stroke-miterlimit="10" stroke-linecap="round"/>
<path d="M403.805 223.42C403.699 222.631 402.973 222.078 402.184 222.185C401.395 222.292 400.843 223.018 400.95 223.807C401.056 224.595 401.782 225.148 402.571 225.041C403.36 224.934 403.912 224.208 403.805 223.42Z" stroke="white" stroke-miterlimit="10" stroke-linecap="round"/>
<path d="M374.965 244.543L348.626 254.654L366.197 261.129L374.979 244.577L382.361 263.808L355.988 273.932L348.584 254.645L374.956 244.521L374.965 244.543Z" fill="white"/>
<path d="M374.235 242.642L374.248 242.675L365.467 259.228L347.895 252.753L374.235 242.642Z" fill="white"/>
<path d="M293.053 301.615C294.266 304.778 294.514 308.231 293.765 311.535C293.017 314.84 291.305 317.848 288.847 320.18C286.388 322.511 283.294 324.062 279.955 324.635C276.615 325.208 273.181 324.779 270.086 323.4C266.991 322.022 264.374 319.757 262.566 316.891C260.758 314.026 259.84 310.688 259.929 307.301C260.017 303.914 261.108 300.63 263.063 297.862C265.018 295.095 267.75 292.97 270.913 291.755C273.014 290.948 275.254 290.563 277.504 290.621C279.754 290.68 281.97 291.182 284.026 292.097C286.082 293.013 287.938 294.325 289.487 295.958C291.036 297.591 292.247 299.513 293.053 301.615Z" fill="#56C4C5"/>
<path d="M293.053 301.615L277.052 307.757L270.91 291.756C274.171 290.504 277.736 290.279 281.128 291.11C284.52 291.942 287.577 293.792 289.888 296.41C291.252 297.937 292.324 299.701 293.053 301.615" fill="white"/>
<path d="M293.053 301.614L277.052 307.756L289.887 296.41C291.251 297.937 292.324 299.7 293.053 301.614Z" fill="#F6CB52"/>
<path d="M393.287 296.504C394.17 298.805 394.351 301.316 393.807 303.72C393.263 306.124 392.019 308.313 390.231 310.009C388.443 311.706 386.192 312.834 383.763 313.252C381.333 313.669 378.835 313.357 376.583 312.354C374.332 311.351 372.428 309.704 371.113 307.619C369.798 305.534 369.13 303.107 369.195 300.643C369.26 298.179 370.053 295.789 371.476 293.777C372.899 291.764 374.886 290.218 377.188 289.335C378.715 288.748 380.344 288.469 381.98 288.511C383.616 288.554 385.227 288.919 386.722 289.584C388.218 290.25 389.567 291.204 390.693 292.391C391.82 293.578 392.701 294.975 393.288 296.503" fill="#56C4C5"/>
<path d="M400.264 370.724C401.148 373.025 401.329 375.536 400.785 377.94C400.241 380.344 398.996 382.533 397.208 384.229C395.421 385.926 393.17 387.054 390.741 387.472C388.311 387.889 385.813 387.577 383.561 386.574C381.31 385.572 379.406 383.924 378.091 381.84C376.775 379.755 376.108 377.327 376.172 374.864C376.237 372.4 377.031 370.01 378.453 367.997C379.876 365.985 381.863 364.439 384.164 363.555C385.692 362.969 387.32 362.689 388.956 362.732C390.592 362.775 392.204 363.139 393.699 363.805C395.194 364.47 396.543 365.424 397.67 366.611C398.796 367.798 399.678 369.196 400.264 370.724Z" fill="#56C4C5"/>
<path d="M385.891 375.946L384.043 376.655L385.847 381.357L387.696 380.647L385.891 375.946Z" fill="white"/>
<path d="M388.524 372.147L386.675 372.856L389.413 379.989L391.261 379.279L388.524 372.147Z" fill="white"/>
<path d="M390.978 367.82L389.13 368.53L393 378.612L394.848 377.903L390.978 367.82Z" fill="white"/>
<path d="M550.072 429.13L534.879 463.404C534.418 464.444 533.562 465.258 532.501 465.667C531.439 466.077 530.258 466.048 529.218 465.587L527.528 464.838C526.488 464.376 525.674 463.521 525.264 462.459C524.855 461.398 524.884 460.217 525.345 459.177L540.538 424.903C541 423.862 541.855 423.048 542.917 422.639C543.979 422.229 545.16 422.258 546.2 422.72L547.89 423.469C548.405 423.697 548.87 424.025 549.258 424.433C549.647 424.841 549.951 425.322 550.154 425.847C550.356 426.373 550.453 426.933 550.439 427.497C550.426 428.06 550.301 428.615 550.072 429.13" fill="#56C4C5"/>
<path d="M525.719 452.944L540.748 459.806L549.768 457.931L556.647 460.532L562.304 448.39L556.592 445.373L547.768 433.657L546.261 437.058L534.642 432.272L525.719 452.944Z" fill="#FFD7B8"/>
<path d="M530.513 449.546C530.641 450.163 530.584 450.803 530.348 451.387C530.112 451.971 529.708 452.471 529.188 452.826C528.667 453.18 528.054 453.372 527.424 453.377C526.794 453.383 526.177 453.201 525.651 452.856C525.125 452.511 524.712 452.017 524.466 451.438C524.22 450.858 524.152 450.219 524.27 449.6C524.387 448.982 524.685 448.412 525.127 447.963C525.568 447.514 526.133 447.206 526.749 447.078C527.576 446.906 528.436 447.07 529.142 447.533C529.848 447.996 530.341 448.72 530.513 449.546" fill="#FFD7B8"/>
<path d="M531.417 444.388C531.546 445.004 531.488 445.645 531.252 446.228C531.016 446.812 530.613 447.313 530.092 447.667C529.572 448.021 528.958 448.213 528.328 448.219C527.699 448.224 527.082 448.043 526.555 447.698C526.029 447.352 525.617 446.859 525.371 446.279C525.125 445.699 525.056 445.06 525.174 444.441C525.292 443.823 525.59 443.253 526.031 442.804C526.473 442.355 527.037 442.047 527.654 441.919C528.48 441.748 529.341 441.911 530.047 442.374C530.752 442.837 531.245 443.561 531.417 444.388" fill="#FFD7B8"/>
<path d="M532.917 439.369C533.046 439.985 532.988 440.626 532.752 441.209C532.516 441.793 532.113 442.294 531.592 442.648C531.072 443.002 530.458 443.194 529.828 443.2C529.199 443.205 528.582 443.024 528.055 442.679C527.529 442.333 527.117 441.84 526.871 441.26C526.625 440.681 526.556 440.041 526.674 439.423C526.792 438.804 527.09 438.234 527.531 437.785C527.973 437.336 528.537 437.028 529.154 436.9C529.98 436.729 530.841 436.892 531.547 437.355C532.252 437.818 532.745 438.542 532.917 439.369" fill="#FFD7B8"/>
<path d="M536.535 434.543C536.663 435.159 536.604 435.799 536.368 436.383C536.132 436.966 535.728 437.466 535.207 437.82C534.687 438.173 534.073 438.365 533.444 438.37C532.814 438.375 532.198 438.194 531.672 437.848C531.145 437.503 530.733 437.009 530.488 436.43C530.242 435.851 530.174 435.211 530.291 434.593C530.408 433.975 530.707 433.405 531.148 432.956C531.589 432.507 532.153 432.199 532.769 432.071C533.596 431.899 534.456 432.063 535.162 432.526C535.868 432.989 536.361 433.713 536.533 434.539" fill="#FFD7B8"/>
<path d="M613.922 466.366L601.198 490.531L554.287 465.001L562.972 444.59L613.922 466.366Z" fill="#56C4C5"/>
<path d="M545.248 383.708L529.614 418.959L537.594 422.498L553.228 387.248L545.248 383.708Z" fill="#56C4C5"/>
<path d="M483.128 366.047C484.981 366.869 486.548 368.221 487.632 369.934C488.717 371.647 489.268 373.643 489.218 375.669C489.168 377.695 488.519 379.661 487.352 381.319C486.184 382.976 484.552 384.25 482.661 384.979C480.77 385.709 478.705 385.861 476.727 385.417C474.749 384.973 472.947 383.953 471.549 382.485C470.151 381.017 469.22 379.168 468.873 377.171C468.526 375.174 468.779 373.119 469.6 371.265C470.145 370.034 470.927 368.922 471.903 367.994C472.878 367.065 474.026 366.338 475.282 365.853C476.539 365.368 477.878 365.136 479.224 365.169C480.571 365.202 481.897 365.501 483.128 366.047" fill="white"/>
<path d="M465.311 369.518C465.181 369.808 464.942 370.034 464.646 370.148C464.349 370.262 464.02 370.253 463.73 370.125L453.112 365.418C452.846 365.274 452.644 365.036 452.546 364.75C452.448 364.464 452.462 364.151 452.584 363.875C452.707 363.599 452.929 363.379 453.206 363.259C453.484 363.14 453.796 363.129 454.081 363.23L464.7 367.937C464.99 368.067 465.216 368.306 465.33 368.602C465.444 368.898 465.436 369.227 465.307 369.517" fill="white"/>
<path d="M465.142 380.907C465.256 381.204 465.247 381.535 465.118 381.825C464.988 382.116 464.749 382.344 464.452 382.458L453.615 386.638C453.325 386.726 453.011 386.701 452.739 386.568C452.466 386.435 452.254 386.203 452.145 385.92C452.036 385.636 452.039 385.322 452.152 385.041C452.266 384.759 452.482 384.531 452.757 384.403L463.594 380.223C463.891 380.109 464.221 380.117 464.512 380.247C464.803 380.376 465.03 380.616 465.144 380.913" fill="white"/>
<path d="M473.485 361.583C473.188 361.697 472.858 361.688 472.567 361.559C472.276 361.429 472.049 361.19 471.935 360.893L467.754 350.056C467.685 349.907 467.646 349.745 467.642 349.58C467.637 349.415 467.667 349.251 467.729 349.099C467.79 348.946 467.883 348.807 468 348.692C468.118 348.576 468.258 348.486 468.411 348.427C468.565 348.368 468.73 348.342 468.894 348.349C469.059 348.356 469.22 348.397 469.368 348.469C469.516 348.542 469.648 348.644 469.754 348.769C469.861 348.894 469.941 349.04 469.989 349.198L474.17 360.035C474.284 360.332 474.275 360.662 474.146 360.953C474.016 361.243 473.776 361.471 473.479 361.585" fill="white"/>
<path d="M572.048 403.983C572.168 406.19 571.762 408.394 570.863 410.414L569.957 412.449L566.618 420.011C565.107 423.412 562.307 426.074 558.833 427.412C555.36 428.75 551.497 428.655 548.094 427.147L537.595 422.501L546.422 402.595L549.619 395.391L553.228 387.244L563.728 391.89C566.095 392.942 568.125 394.629 569.594 396.763C571.063 398.898 571.912 401.396 572.05 403.984" fill="#F6CB52"/>
<path d="M475.585 374.072L537.37 401.46L529.614 418.958L464.458 411.564C463.855 411.495 463.277 411.286 462.77 410.952C462.264 410.619 461.843 410.171 461.541 409.645C461.24 409.118 461.066 408.528 461.035 407.923C461.004 407.317 461.116 406.712 461.362 406.158L475.585 374.072Z" fill="#F6CB52"/>
<path d="M475.585 374.072L537.37 401.46L545.127 383.963L495.893 340.648C495.437 340.248 494.894 339.96 494.307 339.808C493.72 339.657 493.105 339.646 492.512 339.776C491.92 339.906 491.367 340.173 490.897 340.557C490.427 340.941 490.054 341.43 489.809 341.984L475.585 374.072Z" fill="#F6CB52"/>
<path d="M527.312 377.337C527.037 377.652 526.649 377.845 526.232 377.875C525.815 377.904 525.404 377.767 525.087 377.494L495.08 351.432C494.924 351.296 494.796 351.13 494.703 350.945C494.611 350.76 494.556 350.558 494.541 350.351C494.527 350.145 494.553 349.937 494.619 349.741C494.684 349.544 494.788 349.363 494.924 349.206C495.06 349.05 495.225 348.922 495.411 348.829C495.596 348.737 495.798 348.682 496.004 348.667C496.211 348.653 496.418 348.679 496.615 348.745C496.811 348.81 496.993 348.914 497.149 349.05L527.156 375.112C527.471 375.388 527.664 375.776 527.693 376.192C527.722 376.609 527.586 377.021 527.313 377.337" fill="#FFE98F"/>
<path d="M530.12 381.565C530.076 381.207 530.14 380.844 530.302 380.523C530.464 380.201 530.718 379.934 531.031 379.757C531.345 379.58 531.704 379.499 532.064 379.526C532.423 379.552 532.766 379.685 533.05 379.907C533.334 380.128 533.546 380.429 533.659 380.772C533.772 381.114 533.781 381.482 533.685 381.829C533.589 382.176 533.392 382.487 533.119 382.722C532.846 382.958 532.509 383.107 532.152 383.151C531.672 383.21 531.189 383.076 530.808 382.778C530.427 382.481 530.18 382.044 530.12 381.565" fill="#FFE98F"/>
<path d="M554.586 394.872C554.542 394.514 554.605 394.151 554.768 393.83C554.93 393.508 555.184 393.242 555.497 393.064C555.811 392.887 556.17 392.806 556.529 392.833C556.889 392.859 557.232 392.992 557.516 393.214C557.8 393.436 558.012 393.737 558.125 394.079C558.238 394.421 558.247 394.789 558.151 395.136C558.054 395.483 557.857 395.794 557.585 396.03C557.312 396.265 556.975 396.414 556.618 396.458C556.138 396.517 555.654 396.383 555.273 396.085C554.893 395.788 554.645 395.351 554.586 394.872" fill="#FFE98F"/>
<path d="M561.155 397.676C561.11 397.318 561.173 396.955 561.335 396.633C561.498 396.311 561.751 396.044 562.065 395.867C562.379 395.689 562.738 395.608 563.098 395.635C563.457 395.661 563.801 395.794 564.085 396.016C564.37 396.237 564.582 396.539 564.695 396.881C564.808 397.223 564.817 397.592 564.721 397.939C564.625 398.287 564.428 398.598 564.155 398.833C563.881 399.069 563.545 399.218 563.187 399.262C562.949 399.292 562.708 399.274 562.477 399.21C562.247 399.146 562.031 399.038 561.842 398.89C561.653 398.743 561.495 398.56 561.377 398.352C561.259 398.143 561.184 397.914 561.155 397.676" fill="#FFE98F"/>
<path d="M315.099 260.617L319.612 272.375" stroke="white" stroke-miterlimit="10" stroke-linecap="round"/>
<path d="M323.235 264.24L311.477 268.753" stroke="white" stroke-miterlimit="10" stroke-linecap="round"/>
<path d="M403.839 261.042L408.353 272.799" stroke="white" stroke-miterlimit="10" stroke-linecap="round"/>
<path d="M411.975 264.665L400.218 269.178" stroke="white" stroke-miterlimit="10" stroke-linecap="round"/>
<path d="M380.626 333.067L385.14 344.825" stroke="white" stroke-miterlimit="10" stroke-linecap="round"/>
<path d="M388.761 336.69L377.003 341.203" stroke="white" stroke-miterlimit="10" stroke-linecap="round"/>
<path d="M454.8 315.945C454.974 316.399 455.01 316.895 454.902 317.369C454.795 317.844 454.549 318.276 454.196 318.611C453.843 318.946 453.399 319.168 452.92 319.251C452.44 319.333 451.947 319.272 451.502 319.074C451.058 318.876 450.682 318.551 450.422 318.139C450.163 317.728 450.031 317.248 450.044 316.762C450.056 316.276 450.213 315.804 450.494 315.407C450.775 315.009 451.167 314.704 451.621 314.53C452.23 314.296 452.907 314.314 453.503 314.579C454.1 314.844 454.566 315.336 454.8 315.945Z" fill="#FFBC2B"/>
<path d="M431.613 385.253C431.788 385.708 431.824 386.203 431.716 386.678C431.609 387.152 431.363 387.584 431.01 387.919C430.657 388.254 430.213 388.477 429.733 388.559C429.254 388.642 428.761 388.58 428.316 388.382C427.872 388.184 427.496 387.859 427.236 387.448C426.977 387.036 426.845 386.557 426.858 386.071C426.87 385.584 427.027 385.113 427.308 384.715C427.589 384.318 427.981 384.013 428.435 383.838C429.044 383.605 429.721 383.622 430.317 383.888C430.913 384.153 431.38 384.644 431.613 385.253" fill="#FFBC2B"/>
<path d="M429.144 208.609C429.403 209.02 429.534 209.5 429.521 209.986C429.508 210.473 429.351 210.944 429.07 211.341C428.789 211.738 428.396 212.043 427.942 212.217C427.488 212.391 426.992 212.427 426.517 212.319C426.043 212.211 425.611 211.965 425.276 211.612C424.942 211.259 424.719 210.814 424.637 210.335C424.555 209.855 424.617 209.362 424.816 208.917C425.014 208.473 425.34 208.098 425.751 207.838C426.303 207.491 426.971 207.377 427.607 207.521C428.243 207.665 428.796 208.057 429.144 208.609" fill="#FFBC2B"/>
<path d="M353.812 317.859C354.071 318.27 354.202 318.75 354.189 319.236C354.176 319.722 354.018 320.194 353.737 320.591C353.456 320.988 353.063 321.293 352.609 321.467C352.155 321.64 351.659 321.676 351.184 321.568C350.71 321.46 350.278 321.214 349.944 320.861C349.609 320.507 349.387 320.063 349.305 319.583C349.223 319.104 349.285 318.611 349.483 318.166C349.682 317.722 350.007 317.347 350.419 317.087C350.971 316.74 351.639 316.625 352.275 316.77C352.911 316.914 353.464 317.306 353.811 317.858" fill="#FFBC2B"/>
<path d="M383.131 295.88C383.38 296.53 383.431 297.239 383.278 297.918C383.124 298.597 382.773 299.215 382.268 299.695C381.763 300.174 381.127 300.493 380.441 300.61C379.755 300.728 379.049 300.64 378.413 300.357C377.777 300.074 377.239 299.608 376.868 299.02C376.496 298.431 376.308 297.745 376.326 297.049C376.344 296.353 376.568 295.678 376.97 295.11C377.372 294.541 377.933 294.105 378.583 293.855C379.455 293.521 380.423 293.546 381.276 293.926C382.129 294.306 382.796 295.008 383.131 295.88Z" fill="white"/>
<path d="M390.041 304.381C389.16 303.016 387.837 301.996 386.293 301.492C384.748 300.988 383.078 301.03 381.561 301.613C380.045 302.195 378.775 303.281 377.965 304.689C377.155 306.097 376.853 307.74 377.112 309.344L390.041 304.381Z" fill="white"/>
<path d="M433.559 339.82C433.707 339.766 433.864 339.741 434.021 339.748C434.179 339.754 434.334 339.792 434.476 339.859C434.619 339.925 434.748 340.019 434.854 340.135C434.961 340.251 435.044 340.387 435.098 340.535C435.152 340.683 435.176 340.84 435.17 340.998C435.163 341.155 435.125 341.31 435.059 341.453C434.992 341.596 434.899 341.724 434.782 341.831C434.666 341.937 434.53 342.02 434.382 342.074L427.454 344.734C426.734 345.01 425.941 345.031 425.207 344.795L422.354 337.363C423.54 335.702 424.112 333.68 423.972 331.644C423.931 331.369 423.983 331.087 424.121 330.846C424.259 330.604 424.475 330.415 424.733 330.311L424.807 330.283C425.107 330.168 425.442 330.177 425.736 330.308C426.03 330.439 426.26 330.681 426.375 330.982L427.666 334.343L430.908 333.098C431.181 332.986 431.484 332.974 431.765 333.065C432.046 333.155 432.285 333.342 432.441 333.593C432.528 333.743 432.582 333.911 432.598 334.085C432.614 334.258 432.593 334.433 432.535 334.597C432.477 334.762 432.384 334.911 432.263 335.036C432.142 335.162 431.995 335.259 431.832 335.322C432.13 335.207 432.462 335.216 432.754 335.346C433.046 335.476 433.274 335.716 433.388 336.014C433.503 336.313 433.494 336.644 433.364 336.936C433.234 337.228 432.994 337.456 432.695 337.571C432.843 337.514 433 337.487 433.159 337.491C433.317 337.495 433.473 337.53 433.617 337.595C433.762 337.659 433.892 337.751 434.001 337.866C434.11 337.981 434.195 338.116 434.252 338.263C434.308 338.411 434.335 338.569 434.331 338.727C434.327 338.885 434.292 339.041 434.227 339.185C434.163 339.33 434.071 339.46 433.956 339.569C433.841 339.678 433.706 339.763 433.559 339.82V339.82Z" fill="white"/>
<path d="M421.434 337.647L424.276 345.051C424.34 345.219 424.336 345.406 424.262 345.571C424.189 345.736 424.053 345.865 423.885 345.929L422.248 346.557C422.08 346.622 421.893 346.617 421.728 346.544C421.563 346.47 421.434 346.335 421.37 346.166L418.528 338.763C418.463 338.595 418.468 338.407 418.541 338.243C418.615 338.078 418.751 337.949 418.919 337.884L420.555 337.256C420.639 337.224 420.728 337.209 420.817 337.211C420.906 337.214 420.994 337.234 421.076 337.27C421.157 337.306 421.231 337.358 421.292 337.423C421.354 337.488 421.402 337.564 421.434 337.647V337.647Z" fill="white"/>
<path d="M1.25427 -25.2572C-17.5288 95.4228 100.549 196.694 154.5 224.5L150.12 219L183.09 204.514L280.003 52.6654L283 -80.2025L231.047 -108.674C162.276 -131.152 20.0373 -145.937 1.25427 -25.2572Z" fill="#FFE98F"/>
</g>
<defs>
<clipPath id="clip0_98_2">
<rect width="600" height="494" fill="white"/>
</clipPath>
</defs>
</svg>
